<svg width="714" height="714" viewBox="0 0 714 714" fill="none" xmlns="http://www.w3.org/2000/svg">
<path d="M375.307 487C356.307 487 339.473 482.833 324.807 474.5C310.473 466.167 298.973 455.667 290.307 443L295.807 428.5V482H249.307V95H295.307V322.5L293.807 305C302.14 293.667 313.973 284.5 329.307 277.5C344.973 270.167 362.307 266.5 381.307 266.5C399.973 266.5 416.973 271 432.307 280C447.64 289 459.807 301.667 468.807 318C478.14 334 482.807 353.167 482.807 375.5C482.807 398.833 477.807 418.833 467.807 435.5C458.14 452.167 445.14 465 428.807 474C412.473 482.667 394.64 487 375.307 487ZM365.807 447.5C379.14 447.5 391.14 444.333 401.807 438C412.473 431.667 420.807 423.167 426.807 412.5C432.807 401.5 435.807 389 435.807 375C435.807 361.667 432.64 349.667 426.307 339C420.307 328 411.973 319.333 401.307 313C390.973 306.667 379.14 303.5 365.807 303.5C354.473 303.5 343.973 305.667 334.307 310C324.64 314.333 316.473 320.333 309.807 328C303.14 335.333 298.473 344 295.807 354V395.5C298.473 405.5 302.973 414.5 309.307 422.5C315.64 430.167 323.64 436.333 333.307 441C342.973 445.333 353.807 447.5 365.807 447.5Z" fill="#666666"/>
<rect x="78" y="544" width="558" height="22" fill="#A91B1B"/>
</svg>
